# File created by Blade
# Date/Time:  Wed Jan 28 16:58:26 2015
#---------------------------------------------------------
:version 1.10
:name HOM
:units
  mass 1.0
  length 1.000000
  angle deg
:documentation
     Acclaim Skeleton File
:root
   axis xyz
   order TX TY TZ RX RY RZ
   position 0.000000 0.000000 0.000000
   orientation 0 0 0
:bonedata
   begin
      id 1
      name Spine_dum
      direction 0.000000 1.000000 0.000000
      length 9.621153
      axis 0.0 0.0 0.0 xyz
   end
   begin
      id 2
      name LeftUpLeg_dum
      direction 1.000000 0.000000 0.000000
      length 2.700595
      axis 0.0 0.0 0.0 xyz
   end
   begin
      id 3
      name RightUpLeg_dum
      direction -1.000000 0.000000 0.000000
      length 2.700595
      axis 0.0 0.0 0.0 xyz
   end
   begin
      id 4
      name Spine
      direction 0.000000 1.000000 0.000000
      length 0.000000
      axis 0.0 0.0 0.0 xyz
      dof rx ry rz
   end
   begin
      id 5
      name Spine_dum1
      direction 0.000000 1.000000 0.000000
      length 12.771951
      axis 0.0 0.0 0.0 xyz
   end
   begin
      id 6
      name Spine_dum2
      direction 0.000000 1.000000 0.000000
      length 7.400569
      axis 0.0 0.0 0.0 xyz
   end
   begin
      id 7
      name Spine_dum3
      direction 0.000000 1.000000 0.000000
      length 7.400569
      axis 0.0 0.0 0.0 xyz
   end
   begin
      id 8
      name Head
      direction 0.000000 1.000000 0.000000
      length 4.527550
      axis 0.0 0.0 0.0 xyz
      dof rx ry rz
   end
   begin
      id 9
      name LeftShoulder
      direction 1.000000 0.000000 0.000000
      length 8.349299
      axis 0.0 0.0 -90.0 xyz
      dof rx ry rz
   end
   begin
      id 10
      name LeftArm
      direction 1.000000 0.000000 0.000000
      length 11.334839
      axis 0.0 0.0 -90.0 xyz
      dof rx ry rz
   end
   begin
      id 11
      name LeftForeArm
      direction 1.000000 0.000000 0.000000
      length 9.694182
      axis 0.0 0.0 -90.0 xyz
      dof ry rz rx
   end
   begin
      id 12
      name LeftHand
      direction 0.000000 0.000000 0.000000
      length 0.000000
      axis 0.0 0.0 -90.0 xyz
      dof rx ry rz
   end
   begin
      id 13
      name LeftHand_dum1
      direction 0.000000 0.000000 0.000000
      length 0.000000
      axis 0.0 0.0 -90.0 xyz
   end
   begin
      id 14
      name LeftHand_dum2
      direction 1.000000 0.000000 0.000000
      length 3.937000
      axis 0.0 0.0 -90.0 xyz
   end
   begin
      id 15
      name LeftHandThumb1
      direction 0.000000 0.000000 1.000000
      length 3.937000
      axis 0.0 0.0 -90.0 xyz
      dof rx rz ry
   end
   begin
      id 16
      name RightShoulder
      direction -1.000000 0.000000 0.000000
      length 8.349299
      axis 0.0 0.0 90.0 xyz
      dof rx ry rz
   end
   begin
      id 17
      name RightArm
      direction -1.000000 0.000000 0.000000
      length 11.334839
      axis 0.0 0.0 90.0 xyz
      dof rx ry rz
   end
   begin
      id 18
      name RightForeArm
      direction -1.000000 0.000000 0.000000
      length 9.694182
      axis 0.0 0.0 90.0 xyz
      dof ry rz rx
   end
   begin
      id 19
      name RightHand
      direction 0.000000 0.000000 0.000000
      length 0.000000
      axis 0.0 0.0 90.0 xyz
      dof rx ry rz
   end
   begin
      id 20
      name RightHand_dum1
      direction 0.000000 0.000000 0.000000
      length 0.000000
      axis 0.0 0.0 90.0 xyz
   end
   begin
      id 21
      name RightHand_dum2
      direction -1.000000 0.000000 0.000000
      length 3.937000
      axis 0.0 0.0 90.0 xyz
   end
   begin
      id 22
      name RightHandThumb1
      direction 0.000000 0.000000 1.000000
      length 3.937000
      axis 0.0 0.0 90.0 xyz
      dof rx rz ry
   end
   begin
      id 23
      name LeftUpLeg
      direction 0.000000 -1.000000 0.000000
      length 16.757176
      axis 0.0 0.0 0.0 xyz
      dof rx ry rz
   end
   begin
      id 24
      name LeftLeg
      direction 0.000000 -1.000000 0.000000
      length 16.759153
      axis 0.0 0.0 0.0 xyz
      dof rx ry rz
   end
   begin
      id 25
      name LeftFoot
      direction 0.000000 -0.258819 0.965926
      length 5.841289
      axis 15.0 0.0 0.0 xyz
      dof rx ry rz
   end
   begin
      id 26
      name LeftToeBase
      direction 0.000000 0.000000 1.000000
      length 2.952750
      axis 0.0 0.0 0.0 xyz
      dof rx ry rz
   end
   begin
      id 27
      name RightUpLeg
      direction 0.000000 -1.000000 0.000000
      length 16.757176
      axis 0.0 0.0 0.0 xyz
      dof rx ry rz
   end
   begin
      id 28
      name RightLeg
      direction 0.000000 -1.000000 0.000000
      length 16.759153
      axis 0.0 0.0 0.0 xyz
      dof rx ry rz
   end
   begin
      id 29
      name RightFoot
      direction 0.000000 -0.258819 0.965926
      length 5.841289
      axis 15.0 0.0 0.0 xyz
      dof rx ry rz
   end
   begin
      id 30
      name RightToeBase
      direction 0.000000 0.000000 1.000000
      length 2.952750
      axis 0.0 0.0 0.0 xyz
      dof rx ry rz
   end
:hierarchy
   begin
      root Spine_dum LeftUpLeg_dum RightUpLeg_dum
      Spine_dum Spine
      LeftUpLeg_dum LeftUpLeg
      RightUpLeg_dum RightUpLeg
      Spine Spine_dum1 Spine_dum2 Spine_dum3
      Spine_dum1 Head
      Spine_dum2 LeftShoulder
      Spine_dum3 RightShoulder
      LeftShoulder LeftArm
      LeftArm LeftForeArm
      LeftForeArm LeftHand
      LeftHand LeftHand_dum1 LeftHand_dum2
      LeftHand_dum1 LeftHandThumb1
      RightShoulder RightArm
      RightArm RightForeArm
      RightForeArm RightHand
      RightHand RightHand_dum1 RightHand_dum2
      RightHand_dum1 RightHandThumb1
      LeftUpLeg LeftLeg
      LeftLeg LeftFoot
      LeftFoot LeftToeBase
      RightUpLeg RightLeg
      RightLeg RightFoot
      RightFoot RightToeBase
   end

# File created by Blade
# Date/Time:  Wed Jan 28 16:58:32 2015
# Frame Rate: 120.000 fps
#------------------------------------------------------
:FULLY-SPECIFIED
:DEGREES
3890
root 16.721216 36.399484 -20.409200 179.049697 41.987443 -165.605088
Spine 29.570661 -1.902477 8.615408
Head 44.449999 24.597176 24.027222
LeftShoulder -6.964464 9.928828 15.780174
LeftArm 33.014076 -33.894095 -76.715592
LeftForeArm -16.273372 -0.000000 92.055437
LeftHand 3.659322 -0.000000 34.835453
LeftHandThumb1 -26.253704 0.000000 33.147579
RightShoulder -20.950738 -7.820194 -3.783203
RightArm 12.225111 -18.584977 67.323370
RightForeArm -6.083650 0.000000 36.843245
RightHand -15.043129 0.000000 7.879981
RightHandThumb1 -24.326973 -0.000000 -32.862282
LeftUpLeg 14.821550 16.682028 9.467313
LeftLeg 5.898809 -0.000000 -0.000000
LeftFoot -13.853113 6.887733 -11.999953
LeftToeBase 14.791294 -0.000000 -0.000000
RightUpLeg -36.630869 9.963310 -2.991835
RightLeg 80.767244 -0.000000 -0.000000
RightFoot -5.955244 -7.369156 22.105170
RightToeBase -15.926432 -0.000000 0.000000
3891
root 16.764134 36.375270 -20.440029 178.453434 41.650073 -166.195226
Spine 29.517000 -1.746027 8.214175
Head 44.606666 24.536764 24.231808
LeftShoulder -6.920326 9.943063 15.799809
LeftArm 32.942683 -34.050979 -76.426439
LeftForeArm -16.675769 0.000000 91.968263
LeftHand 3.817220 -0.000000 35.137017
LeftHandThumb1 -26.253704 0.000000 33.147579
RightShoulder -20.933278 -7.817589 -3.895027
RightArm 12.292815 -18.817447 67.211315
RightForeArm -6.066040 -0.000000 37.005423
RightHand -15.016536 -0.000000 7.845416
RightHandThumb1 -24.326973 -0.000000 -32.862282
LeftUpLeg 14.998943 16.474869 9.150131
LeftLeg 5.999970 -0.000000 -0.000000
LeftFoot -13.922973 6.685779 -11.974593
LeftToeBase 14.787938 -0.000000 -0.000000
RightUpLeg -34.889662 10.647701 -3.321545
RightLeg 78.375149 -0.000000 -0.000000
RightFoot -6.086146 -7.262737 22.145187
RightToeBase -16.249364 -0.000000 0.000000
3892
root 16.804880 36.350506 -20.470065 177.881857 41.248273 -166.823816
Spine 29.387911 -1.568910 7.755572
Head 44.742401 24.345838 24.453093
LeftShoulder -6.913576 9.987060 15.846259
LeftArm 33.089580 -34.213539 -76.376391
LeftForeArm -17.001019 -0.000000 92.006903
LeftHand 3.654966 -0.000000 35.263610
LeftHandThumb1 -26.253704 0.000000 33.147579
RightShoulder -20.953040 -7.828464 -3.898928
RightArm 12.372864 -18.995862 67.026309
RightForeArm -6.148632 -0.000000 37.150711
RightHand -15.040708 0.000000 7.966992
RightHandThumb1 -24.326973 -0.000000 -32.862282
LeftUpLeg 15.114863 16.173973 8.772420
LeftLeg 6.096333 -0.000000 -0.000000
LeftFoot -13.988220 6.488143 -11.958618
LeftToeBase 14.776591 -0.000000 -0.000000
RightUpLeg -33.216025 11.287824 -3.686863
RightLeg 75.994740 -0.000000 -0.000000
RightFoot -6.170316 -7.218830 22.300856
RightToeBase -17.027198 -0.000000 0.000000
3893
root 16.837699 36.326301 -20.483355 177.481448 40.823544 -167.342563
Spine 29.199243 -1.463098 7.413302
Head 44.874660 24.295362 24.602931
LeftShoulder -7.065178 9.959986 15.777859
LeftArm 33.271915 -34.285154 -76.345553
LeftForeArm -17.063831 -0.000000 92.150507
LeftHand 3.344617 0.000000 35.152418
LeftHandThumb1 -26.253704 0.000000 33.147579
RightShoulder -20.927222 -7.868455 -3.969344
RightArm 12.641099 -19.467004 66.651316
RightForeArm -6.013376 0.000000 37.147865
RightHand -15.017471 -0.000000 7.918548
RightHandThumb1 -24.326973 -0.000000 -32.862282
LeftUpLeg 15.053064 15.883440 8.463696
LeftLeg 6.300397 -0.000000 -0.000000
LeftFoot -14.097276 6.195074 -11.931662
LeftToeBase 14.819470 -0.000000 -0.000000
RightUpLeg -31.704558 11.937784 -3.993841
RightLeg 73.647209 -0.000000 -0.000000
RightFoot -6.088829 -7.230879 22.641291
RightToeBase -17.790904 -0.000000 0.000000
3894
root 16.875772 36.305108 -20.506125 177.072327 40.431288 -167.864434
Spine 29.035791 -1.264814 7.108504
Head 44.898205 24.183555 24.662065
LeftShoulder -7.131534 9.818989 15.743133
LeftArm 33.271910 -34.423520 -76.321558
LeftForeArm -17.091221 -0.000000 92.458843
LeftHand 3.128478 0.000000 34.771394
LeftHandThumb1 -26.253704 0.000000 33.147579
RightShoulder -20.980768 -7.864817 -4.025657
RightArm 12.706493 -19.581766 66.487761
RightForeArm -6.179995 -0.000000 37.250375
RightHand -15.017158 -0.000000 7.711477
RightHandThumb1 -24.326973 -0.000000 -32.862282
LeftUpLeg 15.082137 15.520106 8.136880
LeftLeg 6.399720 -0.000000 -0.000000
LeftFoot -14.159061 5.945061 -11.976847
LeftToeBase 14.822185 -0.000000 -0.000000
RightUpLeg -30.219223 12.531747 -4.301790
RightLeg 71.374741 -0.000000 -0.000000
RightFoot -5.970237 -7.232348 22.741289
RightToeBase -18.017930 -0.000000 0.000000
3895
root 16.915548 36.285133 -20.525755 176.716134 40.047088 -168.374659
Spine 28.795501 -1.042293 6.810928
Head 45.004888 24.103521 24.715873
LeftShoulder -7.164727 9.781380 15.692364
LeftArm 33.363579 -34.654746 -76.375958
LeftForeArm -17.593120 -0.000000 92.954866
LeftHand 2.867318 -0.000000 34.453311
LeftHandThumb1 -26.253704 0.000000 33.147579
RightShoulder -20.977288 -7.900704 -4.064195
RightArm 12.722461 -19.589015 66.329075
RightForeArm -6.356997 -0.000000 37.367594
RightHand -15.012851 -0.000000 7.803389
RightHandThumb1 -24.326973 -0.000000 -32.862282
LeftUpLeg 15.074676 15.192496 7.813051
LeftLeg 6.490277 -0.000000 -0.000000
LeftFoot -14.218121 5.680676 -12.005128
LeftToeBase 14.852098 -0.000000 -0.000000
RightUpLeg -28.833754 13.165968 -4.598831
RightLeg 69.191453 -0.000000 -0.000000
RightFoot -5.842390 -7.293424 22.825491
RightToeBase -18.032969 -0.000000 0.000000
3896
root 16.955182 36.267084 -20.546651 176.398802 39.680117 -168.856603
Spine 28.535326 -0.768743 6.556896
Head 45.096921 23.931266 24.741450
LeftShoulder -7.208437 9.725187 15.656454
LeftArm 33.447060 -34.795084 -76.450306
LeftForeArm -17.553460 -0.000000 93.467221
LeftHand 2.586303 -0.000000 34.337166
LeftHandThumb1 -26.253704 0.000000 33.147579
RightShoulder -21.010732 -7.899286 -4.080710
RightArm 12.742975 -19.650839 66.080321
RightForeArm -6.753022 -0.000000 37.519327
RightHand -15.295441 -0.000000 8.026757
RightHandThumb1 -24.326973 -0.000000 -32.862282
LeftUpLeg 15.050202 14.953880 7.531957
LeftLeg 6.606642 -0.000000 -0.000000
LeftFoot -14.254579 5.339158 -12.026205
LeftToeBase 14.965936 -0.000000 -0.000000
RightUpLeg -27.492294 13.733102 -4.859076
RightLeg 67.054874 -0.000000 -0.000000
RightFoot -5.745257 -7.396943 22.655701
RightToeBase -18.092151 -0.000000 0.000000
3897
root 16.995036 36.252201 -20.549051 176.203904 39.269314 -169.251196
Spine 28.241380 -0.526692 6.384290
Head 45.228329 23.885259 24.788294
LeftShoulder -7.173611 9.722873 15.624426
LeftArm 33.495468 -35.032786 -76.511269
LeftForeArm -17.769397 -0.000000 94.126504
LeftHand 2.335114 -0.000000 34.406504
LeftHandThumb1 -26.253704 0.000000 33.147579
RightShoulder -21.029748 -7.954421 -4.127222
RightArm 12.777839 -19.525506 65.942406
RightForeArm -6.899395 -0.000000 37.562390
RightHand -15.326771 0.000000 8.135564
RightHandThumb1 -24.326973 -0.000000 -32.862282
LeftUpLeg 14.884259 14.758314 7.331964
LeftLeg 6.812168 -0.000000 -0.000000
LeftFoot -14.292613 4.917073 -12.011449
LeftToeBase 14.728617 -0.000000 -0.000000
RightUpLeg -26.291553 14.238061 -5.035396
RightLeg 65.016080 -0.000000 -0.000000
RightFoot -5.658784 -7.430850 22.507641
RightToeBase -18.055152 -0.000000 0.000000
